# xmcd
# 
# Track frame offsets:
#     150
#     20840
#     34045
#     43952
#     62687
#     75170
#     80045
#     99295
#     126427
#     141917
#     158367
#     189670
#     211625
#     223062
#     243077
#     264312
#     279042
# 
# Disc length: 3784
# 
# Revision: 2
# Processed by: cddbd v1.5.2PL0 Copyright (c) Steve Scherf et al.
# Submitted via: BonkEnc v1.0.6
# 
DISCID=e00ec611
DTITLE=Various Artist - ケルトの音楽〜幻想の響き
DYEAR=0
DGENRE=
TTITLE0=ケーシュ・ジグ
TTITLE1=リンゴはお好き?
TTITLE2=フロスティ・モーニング
TTITLE3=海辺にて
TTITLE4=トミーズ・セレクション
TTITLE5=鍋を早く沸かせ
TTITLE6=キルデアーの平原
TTITLE7=マーティンマスの時に/小麦の山
TTITLE8=ブライアン・ジグ
TTITLE9=古い安楽椅子/ハリー・トム/ミス・シェパード
TTITLE10=僕のガールフレンド/サン・アン・イル/ザ・ピンチ・オブ・スナフ
TTITLE11=我は恋に病む
TTITLE12=ザ・ゲイ・ガーデンズ
TTITLE13=アイ・ウィル・ゴー
TTITLE14=悪魔と農夫の妻
TTITLE15=リコンシリエイション
TTITLE16=蛍の光
EXTD=
EXTT0=
EXTT1=
EXTT2=
EXTT3=
EXTT4=
EXTT5=
EXTT6=
EXTT7=
EXTT8=
EXTT9=
EXTT10=
EXTT11=
EXTT12=
EXTT13=
EXTT14=
EXTT15=
EXTT16=
PLAYORDER=
